[img]http://img15.imageshack.us/img15/8163/greatgambler.jpg[/img]


[img]http://img819.imageshack.us/img819/5598/roadies1.jpg[/img]



[b][size=4][color=green]MTV Roadies 9 : Everything or Nothing is the ninth season of MTV Roadies, a reality television show aired on MTV India . The auditions started on 16 September from Pune following with Audition in Kolkata , Delhi, Chandhigarh and Hyderabad. Part of the season will take place in United States of America. The show started airing on MTV India from 7th January 2012 and every new episode airs on Saturdays at 7 P.M. IST.[/color][/size][/b]





[img]http://img18.imageshack.us/img18/6966/infoum.png[/img]


[b][size=5][color=green]General[/color][/size][/b]

[b][size=4][color=teal]Format                           : AVI
Format/Info                      : Audio Video Interleave
File size                        : 249 MiB
Duration                         : 39mn 55s
Overall bit rate                 : 873 Kbps
Movie name                       : Roadies 9 - Kolkata Auditions-1 [Uncensored] by !!!---greatgambler---!!!
Encoded by                       : !!!---greatgambler---!!!
Genre                            : Entertaining
Writing application              : MEncoder
Original source form/Name        : Television[/color][/size][/b]

[b][size=5][color=green]Video[/color][/size][/b]

[size=4][color=teal]ID                               : 0
Format                           : MPEG-4 Visual
Format profile                   : Advanced Simple@L5
Format settings, BVOP            : 2
Format settings, QPel            : No
Format settings, GMC             : No warppoints
Format settings, Matrix          : Default (H.263)
Codec ID                         : XVID
Codec ID/Hint                    : XviD
Duration                         : 39mn 55s
Bit rate                         : 765 Kbps
Width                            : 566 pixels
Height                           : 528 pixels
Display aspect ratio             : 1.072
Frame rate                       : 25.000 fps
Color space                      : YUV
Chroma subsampling               : 4:2:0
Bit depth                        : 8 bits
Scan type                        : Progressive
Compression mode                 : Lossy
Bits/(Pixel*Frame)               : 0.102
Stream size                      : 218 MiB (88%)
Writing library                  : XviD 1.2.1 (UTC 2008-12-04)
[/color][/size]


[b][size=5][color=green]Audio[/color][/size][/b]

[size=4][color=teal]ID                               : 1
Format                           : MPEG Audio
Format version                   : Version 1
Format profile                   : Layer 3
Mode                             : Joint stereo
Mode extension                   : MS Stereo
Codec ID                         : 55
Codec ID/Hint                    : MP3
Duration                         : 39mn 54s
Bit rate mode                    : Constant
Bit rate                         : 96.0 Kbps
Channel(s)                       : 2 channels
Sampling rate                    : 44.1 KHz
Compression mode                 : Lossy
Delay relative to video          : 40ms
Stream size                      : 27.4 MiB (11%)
Alignment                        : Aligned on interleaves
Interleave, duration             : 26 ms (0.65 video frame)
Interleave, preload duration     : 522 ms
Writing library                  : LAME3.98
Language                         : Hindi[/color][/size]


[img]http://img231.imageshack.us/img231/3671/screenshoots.png[/img]


[img]http://img46.imageshack.us/img46/8724/vlcsnap2012021013h15m29.png[/img]


[img]http://img849.imageshack.us/img849/6061/vlcsnap2012021013h15m41.png[/img]


[img]http://img96.imageshack.us/img96/6325/vlcsnap2012021013h15m45.png[/img]


[img]http://img846.imageshack.us/img846/6480/vlcsnap2012021013h16m14.png[/img]


[img]http://img853.imageshack.us/img853/2457/vlcsnap2012021013h16m26.png[/img]
